{"title":"The.Losers.DVDRip.XviD-ALLiANCE-[tracker.BTARENA.org].avi","uid":5663919,"size":732575693,"categoryP":"video","categoryS":"movies","magnet":"?xt=urn:btih:1548b276a7952b019515f35e36a2acb27e3d2e53&amp;dn=The.Losers.DVDRip.XviD-ALLiANCE-%5Btracker.BTARENA.org%5D.avi&amp;tr=udp%3A%2F%2Ftracker.openbittorrent.com%3A80&amp;tr=udp%3A%2F%2Fopen.demonii.com%3A1337&amp;tr=udp%3A%2F%2Ftracker.coppersurfer.tk%3A6969&amp;tr=udp%3A%2F%2Fexodus.desync.com%3A6969","seeders":0,"leechers":1,"uploader":"AiTB","files":2,"time":1278069297,"description":"info, sample, subs\n\n &lt;a href=&quot;\nhttp://www.btarena.org/movies/dvdrip/the-losers-dvdrip-xvid-alliance&quot; rel=&quot;nofollow&quot; target=&quot;_NEW&quot;&gt;\nhttp://www.btarena.org/movies/dvdrip/the-losers-dvdrip-xvid-alliance&lt;/a&gt;\n\n\n\n\n\n\n\n\nSample/alli-losers-xvid-sample.avi\nFormat                           : AVI\nFormat/Info                      : Audio Video Interleave\nFile size                        : 9.13 MiB\nDuration                         : 1mn 37s\nOverall bit rate                 : 787 Kbps\nWriting application              : Nandub v1.0rc2\nWriting library                  : VirtualDub build 32661/release\n\nVideo\nID                               : 0\nFormat                           : MPEG-4 Visual\nFormat profile                   : Advanced Simple@L5\nFormat settings, BVOP            : Yes\nFormat settings, QPel            : No\nFormat settings, GMC             : No warppoints\nFormat settings, Matrix          : Default (H.263)\nCodec ID                         : XVID\nCodec ID/Hint                    : XviD\nDuration                         : 1mn 37s\nBit rate                         : 650 Kbps\nWidth                            : 608 pixels\nHeight                           : 256 pixels\nDisplay aspect ratio             : 2.35:1\nFrame rate                       : 23.976 fps\nResolution                       : 8 bits\nColorimetry                      : 4:2:0\nScan type                        : Progressive\nBits/(Pixel*Frame)               : 0.174\nStream size                      : 7.55 MiB (83%)\nWriting library                  : XviD 1.2.1 (UTC 2008-12-04)\n\nAudio\nID                               : 1\nFormat                           : MPEG Audio\nFormat version                   : Version 1\nFormat profile                   : Layer 3\nFormat_Settings_Mode             : Joint stereo\nFormat_Settings_ModeExtension    : MS Stereo\nCodec ID                         : 55\nCodec ID/Hint                    : MP3\nDuration                         : 1mn 37s\nBit rate mode                    : Variable\nBit rate                         : 128 Kbps\nChannel(s)                       : 2 channels\nSampling rate                    : 48.0 KHz\nStream size                      : 1.43 MiB (16%)\nAlignment                        : Aligned on interleaves\nInterleave, duration             : 24 ms (0.58 video frame)\nInterleave, preload duration     : 517 ms\n\n\n\n\nPlot:\nAfter being betrayed and left for dead, members of a CIA black ops team root out those who targeted them for assassination.","torrent":{"xt":"urn:btih:1548b276a7952b019515f35e36a2acb27e3d2e53","amp;dn":"The.Losers.DVDRip.XviD-ALLiANCE-%5Btracker.BTARENA.org%5D.avi","amp;tr":["udp%3A%2F%2Ftracker.openbittorrent.com%3A80","udp%3A%2F%2Fopen.demonii.com%3A1337","udp%3A%2F%2Ftracker.coppersurfer.tk%3A6969","udp%3A%2F%2Fexodus.desync.com%3A6969"],"infoHash":"1548b276a7952b019515f35e36a2acb27e3d2e53","infoHashBuffer":{"type":"Buffer","data":[21,72,178,118,167,149,43,1,149,21,243,94,54,162,172,178,126,61,46,83]},"announce":[],"urlList":[]}}